<svg width="371" height="377" viewBox="0 0 371 377" fill="none" xmlns="http://www.w3.org/2000/svg">
<path d="M163.991 114.73C171.349 102.928 179.151 96.3171 201.206 83.1874C230.615 65.6802 298.58 36.6741 301.655 44.6877C304.302 51.5876 313.079 91.5965 310.326 95.3784C309.072 97.1033 232.477 127.913 225.156 132.659C210.186 142.364 205.885 150.806 205.885 170.494V184.036L182.35 197.023C166.62 205.704 157.785 208.98 155.706 206.901C153.85 205.046 153.015 188.826 153.639 166.724C154.62 131.812 155.222 128.791 163.991 114.73Z" fill="black"/>
<path d="M87.9616 147.666C87.9616 136.106 90.1091 119.415 92.7375 110.576C98.1124 92.4731 100.884 91.4523 118.041 101.238C138.551 112.934 140.493 115.481 137.331 126.504C135.78 131.915 134.51 149.264 134.51 165.058C134.51 180.856 133.545 193.778 132.363 193.778C131.184 193.778 120.71 188.131 109.089 181.228L87.9616 168.682V147.666Z" fill="#002855"/>
<path d="M252.471 137.338C252.449 136.156 261.163 130.246 271.829 124.199C282.498 118.155 292.997 113.188 295.166 113.16C305.335 113.039 351.744 149.797 351.735 157.969C351.732 160.541 328.482 175.774 316.771 180.878C315.43 181.461 308.932 177.062 302.328 171.096C295.724 165.133 281.816 155.58 271.417 149.869C261.018 144.157 252.49 138.52 252.471 137.338Z" fill="#E84A27"/>
<path d="M221.401 178.666C221.401 164.447 222.885 153.204 225.045 151.045C227.831 148.259 232.747 149.692 245.992 157.163C304.901 190.39 310.691 192.313 310.691 250.118C310.691 273.883 313.779 374.878 310.691 376.06C308.41 376.935 296.54 371.885 284.314 364.839C262.662 352.358 262.082 351.703 262.082 339.78C262.082 322.524 264.469 225.707 253.632 220.104C236.366 211.178 221.401 204.581 221.401 178.666Z" fill="#002855"/>
<path d="M326.785 210.506C323.045 200.678 325.621 197.101 344.501 185.904C351.043 182.026 358.652 178.718 361.414 178.557C368.21 178.163 371 309.059 371 334.049V353.089L350.059 365.353C338.54 372.101 328.067 376.972 326.785 376.178C325.5 375.386 324.451 362.347 324.451 347.201C324.451 332.054 328.563 215.179 326.785 210.506Z" fill="black"/>
<path d="M9.66504 207.467C9.66504 205.286 18.7421 198.215 29.8362 191.759C53.1168 178.208 57.0548 177.661 70.8798 186.088C76.4688 189.494 152.664 224.781 157.785 224.781C162.905 224.781 171.666 221.992 177.254 218.585C182.843 215.179 189.745 212.393 192.591 212.393C198.993 212.393 240.021 236.465 240.021 240.222C240.021 244.416 187.377 273.449 172.718 277.337C165.571 279.232 154.03 279.871 147.069 278.76C132.304 276.4 9.66504 213.293 9.66504 207.467Z" fill="#E84A27"/>
<path d="M184.162 294.977C193.55 291.09 209.609 282.902 219.85 276.784L238.469 265.659L239.376 290.603C240.083 310.018 239.186 316.756 235.335 321.016C227.63 329.526 194.813 343.019 180.243 343.664L167.094 344.247V323.148V302.045L184.162 294.977Z" fill="black"/>
<path d="M5.51446 279.673C1.12335 275.702 0 269.726 0 250.345C0 236.958 1.32199 226.006 2.93568 226.006C4.55247 226.006 90.2052 273.384 100.939 279.673C111.677 285.965 126.762 293.504 134.467 296.426L148.475 301.741V322.996V344.247L135.178 343.649C121.464 343.031 15.2463 288.477 5.51446 279.673Z" fill="#002855"/>
<path d="M113.387 79.0775C113.303 74.7434 219.636 18.3263 234.994 8.17191C241.79 3.67643 249.349 0 251.788 0C256.651 0 291.53 24.8296 291.471 27.5412C291.452 28.4657 287.445 28.4311 276.797 34.211C265.459 38.0179 166.745 85.3736 163.41 92.3963L147.963 102.479L130.706 92.3963C121.213 86.8491 113.421 80.8552 113.387 79.0775Z" fill="#E84A27"/>
</svg>
