<svg width="279" height="283" viewBox="0 0 279 283" fill="none" xmlns="http://www.w3.org/2000/svg">
<path d="M122.935 86.007C128.451 77.1598 134.3 72.2037 150.833 62.3611C172.88 49.2369 223.829 27.4925 226.135 33.5C228.119 38.6724 234.698 68.6649 232.635 71.5C231.695 72.7931 174.276 95.8891 168.788 99.4475C157.565 106.722 154.341 113.051 154.341 127.81V137.962L136.698 147.698C124.906 154.205 118.283 156.661 116.724 155.103C115.333 153.712 114.707 141.553 115.175 124.984C115.91 98.8126 116.361 96.5473 122.935 86.007Z" fill="white"/>
<path d="M65.9401 110.697C65.9401 102.031 67.5499 89.5189 69.5203 82.8929C73.5495 69.3221 75.6269 68.5569 88.4893 75.8923C103.864 84.6604 105.32 86.5698 102.95 94.8332C101.787 98.8893 100.835 111.895 100.835 123.735C100.835 135.578 100.112 145.265 99.2253 145.265C98.3413 145.265 90.4899 141.032 81.7778 135.857L65.9401 126.452V110.697Z" fill="#002855"/>
<path d="M189.264 102.955C189.248 102.069 195.78 97.6381 203.776 93.1052C211.774 88.5746 219.644 84.8511 221.27 84.8302C228.893 84.7395 263.684 112.295 263.677 118.421C263.674 120.349 246.245 131.768 237.466 135.594C236.461 136.032 231.59 132.734 226.639 128.261C221.689 123.791 211.262 116.63 203.466 112.348C195.671 108.067 189.278 103.841 189.264 102.955Z" fill="#E84A27"/>
<path d="M165.973 133.936C165.973 123.277 167.085 114.849 168.704 113.23C170.793 111.141 174.478 112.216 184.407 117.816C228.568 142.725 232.908 144.167 232.908 187.5C232.908 205.315 235.223 281.026 232.908 281.912C231.199 282.568 222.3 278.782 213.135 273.5C196.904 264.143 196.469 263.653 196.469 254.715C196.469 241.779 198.258 169.2 190.135 165C177.191 158.309 165.973 153.363 165.973 133.936Z" fill="#002855"/>
<path d="M244.973 157.805C242.17 150.437 244.101 147.756 258.254 139.362C263.158 136.455 268.862 133.975 270.933 133.855C276.027 133.559 278.119 231.685 278.119 250.419V264.692L262.421 273.885C253.785 278.944 245.934 282.595 244.973 282C244.01 281.407 243.224 271.632 243.224 260.277C243.224 248.923 246.306 161.308 244.973 157.805Z" fill="white"/>
<path d="M7.24536 155.527C7.24536 153.892 14.0499 148.591 22.3666 143.751C39.8188 133.593 42.7709 133.183 53.1348 139.5C57.3245 142.054 114.444 168.506 118.283 168.506C122.121 168.506 128.688 166.415 132.878 163.861C137.068 161.308 142.242 159.219 144.375 159.219C149.174 159.219 179.931 177.265 179.931 180.081C179.931 183.226 140.467 204.99 129.477 207.904C124.119 209.325 115.468 209.804 110.25 208.972C99.181 207.202 7.24536 159.894 7.24536 155.527Z" fill="#E84A27"/>
<path d="M138.057 221.128C145.094 218.214 157.133 212.077 164.81 207.49L178.768 199.15L179.447 217.849C179.977 232.404 179.305 237.455 176.418 240.648C170.642 247.028 146.041 257.143 135.118 257.626L125.262 258.064V242.246V226.427L138.057 221.128Z" fill="white"/>
<path d="M4.13389 209.656C0.842118 206.679 0 202.199 0 187.67C0 177.635 0.991021 169.425 2.20072 169.425C3.41274 169.425 67.622 204.941 75.6688 209.656C83.7179 214.372 95.0263 220.024 100.803 222.215L111.304 226.199V242.132V258.064L101.335 257.615C91.0552 257.152 11.4293 216.256 4.13389 209.656Z" fill="#002855"/>
<path d="M85 59.2801C84.9372 56.0311 164.649 13.7382 176.162 6.12604C181.257 2.75602 186.924 0 188.752 0C192.398 0 218.544 18.6134 218.5 20.6461C218.486 21.3392 215.482 21.3132 207.5 25.6461C199 28.5 125 64 122.5 69.2646L110.92 76.8232L97.9833 69.2646C90.8671 65.1061 85.0256 60.6128 85 59.2801Z" fill="#E84A27"/>
</svg>
